<svg width="140" height="56" viewBox="0 0 140 56" fill="none" xmlns="http://www.w3.org/2000/svg">
<path d="M129.925 0.0141092C129.925 0.0141092 108.936 -1.64328 88.314 30.9685C88.314 30.9685 142.669 12.8641 115.164 48.4239C115.164 48.4239 159.003 5.81144 130.193 15.2762C98.5898 25.7212 112.371 4.33037 129.925 0.0141092Z" fill="#F3C300"/>
<path d="M100.854 12.2365C100.854 12.2365 86.1911 -5.628 61.1963 29.3182C61.1963 29.3182 71.5638 22.6957 82.5872 25.2347C83.7341 25.467 84.7447 26.1384 85.4036 27.1056C86.0624 28.0727 86.3171 29.259 86.1135 30.4114C86.1135 30.4114 95.9168 16.0309 100.854 12.2365Z" fill="#F3C300"/>
<path d="M0 54.5738L4.84521 31.3492H9.40832L7.75798 39.1143C8.46508 38.5502 9.25175 38.0939 10.0924 37.7602C10.8608 37.4948 11.6708 37.3705 12.4833 37.3934C13.2753 37.3652 14.064 37.5095 14.7947 37.8164C15.5254 38.1233 16.1806 38.5854 16.7149 39.1707C17.7963 40.3367 18.3371 42.0553 18.3371 44.3262C18.34 45.8434 18.0873 47.3503 17.5895 48.7835C17.1722 50.0861 16.4876 51.2872 15.5794 52.3099C14.8324 53.1406 13.935 53.8225 12.9347 54.3199C12.0267 54.7592 11.0306 54.9859 10.0219 54.9829C8.92572 55.0278 7.84021 54.7522 6.89824 54.1898C5.95626 53.6274 5.1987 52.8025 4.71826 51.8162L4.13289 54.5879L0 54.5738ZM6.12881 47.7115C6.08384 48.7196 6.42713 49.7066 7.08798 50.4691C7.36406 50.7996 7.7092 51.0656 8.0991 51.2483C8.48901 51.4311 8.91423 51.5262 9.34484 51.527C10.1436 51.5123 10.913 51.2234 11.5241 50.7089C12.3215 50.0007 12.9156 49.0926 13.245 48.0783C13.7049 46.9173 13.9441 45.6807 13.9503 44.432C14.012 43.4084 13.6817 42.3997 13.0264 41.6109C12.7497 41.2873 12.4056 41.028 12.0182 40.8513C11.6308 40.6747 11.2094 40.5849 10.7836 40.5883C10.202 40.5984 9.63126 40.7471 9.11859 41.0218C8.60591 41.2965 8.16609 41.6895 7.83556 42.1681C6.6526 43.768 6.05055 45.7234 6.12881 47.7115Z" fill="#111921"/>
<path d="M24.7339 42.5208L20.2977 42.14C20.7567 40.6981 21.6917 39.4547 22.9496 38.6136C24.4631 37.7186 26.2085 37.2939 27.964 37.3935C30.1292 37.3935 31.7231 37.8237 32.7599 38.6983C33.2458 39.0749 33.6385 39.5584 33.9075 40.1112C34.1766 40.664 34.3148 41.2713 34.3115 41.8861C34.3101 42.4272 34.2653 42.9672 34.1775 43.5012C34.0834 44.0748 33.7708 45.5746 33.2395 48.0008C32.8746 49.3866 32.6385 50.8032 32.5342 52.2324C32.5489 53.0456 32.677 53.8527 32.915 54.6303H28.5353C28.3508 54.0104 28.2372 53.3716 28.1968 52.7261C27.5601 53.4469 26.7792 54.0259 25.9047 54.4258C25.0872 54.8159 24.1938 55.0206 23.2881 55.0253C22.6471 55.0404 22.0099 54.9229 21.4164 54.6801C20.8229 54.4374 20.286 54.0747 19.8393 53.6147C19.384 53.1508 19.0284 52.5986 18.7943 51.9922C18.5602 51.3858 18.4527 50.7379 18.4781 50.0884C18.4436 49.3776 18.5589 48.6675 18.8165 48.0041C19.074 47.3407 19.4682 46.7389 19.9733 46.2376C20.9701 45.2972 22.7521 44.7166 25.3193 44.4956C26.7838 44.4319 28.2376 44.2145 29.6567 43.8467C29.8209 43.3545 29.9159 42.8418 29.9388 42.3233C29.9418 42.0896 29.8905 41.8584 29.7889 41.6479C29.6874 41.4374 29.5383 41.2533 29.3534 41.1103C28.85 40.7437 28.2323 40.5686 27.6114 40.6166C26.9355 40.5802 26.265 40.7552 25.6931 41.1173C25.2168 41.4564 24.8768 41.9539 24.7339 42.5208ZM29.0572 46.7524C28.6968 46.8402 28.3318 46.9085 27.964 46.957C25.679 47.2344 24.1908 47.6364 23.4997 48.163C23.2587 48.3384 23.0644 48.5704 22.9341 48.8385C22.8037 49.1066 22.7412 49.4026 22.7521 49.7005C22.7474 49.9505 22.7958 50.1986 22.8943 50.4284C22.9928 50.6582 23.1391 50.8645 23.3234 51.0334C23.5248 51.2201 23.7614 51.3648 24.0193 51.4592C24.2772 51.5537 24.5512 51.5959 24.8256 51.5836C25.518 51.5838 26.1985 51.4039 26.8003 51.0617C27.3659 50.7705 27.8377 50.3255 28.1615 49.7781C28.5325 49.004 28.7868 48.1793 28.9162 47.3308L29.0572 46.7524Z" fill="#111921"/>
<path d="M38.3106 37.7532H42.6198L42.1755 39.9396C43.0743 39.1265 44.0923 38.4558 45.194 37.9507C46.1315 37.5681 47.1366 37.3785 48.1491 37.3935C48.7462 37.361 49.3437 37.4492 49.906 37.6528C50.4682 37.8564 50.9837 38.1712 51.4216 38.5784C51.8212 38.9901 52.1329 39.4787 52.3378 40.0146C52.5427 40.5505 52.6365 41.1224 52.6135 41.6957C52.5374 42.8278 52.3628 43.9511 52.0916 45.0528L50.1098 54.5739H45.5678L47.5637 45.0175C47.7643 44.1788 47.9127 43.3285 48.0081 42.4715C48.0207 42.2203 47.9815 41.9692 47.8929 41.7339C47.8043 41.4985 47.6683 41.2838 47.4932 41.1033C47.1062 40.759 46.6001 40.5794 46.0827 40.6025C45.2747 40.653 44.5006 40.9455 43.8611 41.4418C43.0442 42.0054 42.3841 42.7675 41.9427 43.6563C41.422 44.9472 41.0413 46.2902 40.8073 47.6623L39.3967 54.5739H34.7983L38.3106 37.7532Z" fill="#111921"/>
<path d="M61.3584 54.5739H57.423L54.0518 37.7532H58.5373L59.701 45.0809C60.0325 47.0698 60.2229 48.3887 60.2864 49.0446C60.371 48.8612 60.7377 48.1771 61.3936 46.9922C62.0495 45.8074 62.4374 45.088 62.5855 44.8764L66.7678 37.7814H71.7047L61.3584 54.5739Z" fill="#111921"/>
<path d="M72.8616 37.7531H77.4035L73.8772 54.5738H69.3423L72.8616 37.7531ZM74.1875 31.3492H78.7365L77.8761 35.468H73.3482L74.1875 31.3492Z" fill="#111921"/>
<path d="M93.0957 47.5705H81.7056C81.7056 47.7469 81.7056 47.8879 81.7056 47.9796C81.658 48.9732 82.0024 49.9457 82.6648 50.6878C82.956 51.0184 83.3156 51.2817 83.7187 51.4595C84.1218 51.6373 84.5587 51.7253 84.9992 51.7175C86.5085 51.7175 87.6863 50.9417 88.5256 49.376L92.595 50.0813C91.9113 51.5891 90.8068 52.8675 89.4142 53.7628C88.0745 54.5853 86.5289 55.0109 84.9569 54.99C83.9427 55.0341 82.9304 54.869 81.9828 54.505C81.0351 54.141 80.1726 53.5859 79.4487 52.8742C78.7305 52.12 78.1727 51.2281 77.8091 50.2523C77.4454 49.2764 77.2834 48.237 77.3329 47.1967C77.2996 44.9967 77.9719 42.8439 79.2513 41.0538C80.0841 39.8677 81.2024 38.9106 82.5028 38.2709C83.8033 37.6311 85.244 37.3294 86.6919 37.3935C87.6025 37.3449 88.5131 37.4894 89.364 37.8176C90.2148 38.1458 90.9866 38.6502 91.6288 39.2977C92.8489 40.5742 93.4554 42.3515 93.4554 44.6437C93.4502 45.63 93.3295 46.6123 93.0957 47.5705ZM89.2591 44.7988C89.2591 44.6013 89.2591 44.4462 89.2591 44.3404C89.3377 43.3286 89.0387 42.3236 88.4198 41.5193C88.135 41.2099 87.7862 40.9663 87.3976 40.8055C87.0091 40.6447 86.5901 40.5706 86.17 40.5883C85.2192 40.5918 84.3086 40.9722 83.638 41.6463C82.8194 42.509 82.2916 43.6066 82.1288 44.7847L89.2591 44.7988Z" fill="#111921"/>
<path d="M96.728 37.7532H101.037L100.593 39.9395C101.49 39.1249 102.509 38.4541 103.611 37.9507C104.549 37.5673 105.554 37.3777 106.566 37.3935C107.163 37.3608 107.759 37.4488 108.32 37.6525C108.881 37.8561 109.396 38.171 109.832 38.5784C110.237 38.9936 110.553 39.4877 110.759 40.03C110.965 40.5724 111.058 41.1513 111.031 41.7309C110.951 42.8626 110.777 43.9856 110.509 45.088L108.527 54.6092H103.985L105.974 45.0528C106.175 44.2141 106.323 43.3638 106.418 42.5067C106.433 42.2554 106.394 42.0038 106.306 41.7682C106.217 41.5325 106.08 41.3181 105.904 41.1385C105.518 40.7923 105.011 40.6123 104.493 40.6378C103.686 40.6767 102.91 40.9567 102.264 41.4418C101.446 42.0033 100.785 42.7659 100.346 43.6563C99.8185 44.9454 99.4353 46.2889 99.2035 47.6623L97.7929 54.5739H93.251L96.728 37.7532Z" fill="#111921"/>
</svg>
