<svg fill="none" height="22" viewBox="0 0 22 22" width="22" xmlns="http://www.w3.org/2000/svg">
<path d="M11 13.75C12.5188 13.75 13.75 12.5188 13.75 11C13.75 9.48122 12.5188 8.25 11 8.25C9.48122 8.25 8.25 9.48122 8.25 11C8.25 12.5188 9.48122 13.75 11 13.75Z" stroke="#888C90" stroke-linecap="round" stroke-linejoin="round"/>
<path d="M17.7834 13.7501C17.6614 14.0266 17.625 14.3333 17.6789 14.6306C17.7328 14.928 17.8746 15.2024 18.0859 15.4184L18.1409 15.4734C18.3114 15.6437 18.4466 15.8459 18.5389 16.0684C18.6311 16.291 18.6786 16.5296 18.6786 16.7705C18.6786 17.0114 18.6311 17.25 18.5389 17.4726C18.4466 17.6951 18.3114 17.8973 18.1409 18.0676C17.9706 18.238 17.7685 18.3733 17.5459 18.4655C17.3233 18.5578 17.0848 18.6053 16.8438 18.6053C16.6029 18.6053 16.3643 18.5578 16.1418 18.4655C15.9192 18.3733 15.717 18.238 15.5467 18.0676L15.4917 18.0126C15.2757 17.8013 15.0013 17.6595 14.704 17.6056C14.4066 17.5517 14.0999 17.5881 13.8234 17.7101C13.5523 17.8263 13.3211 18.0192 13.1582 18.2652C12.9953 18.5111 12.9079 18.7993 12.9067 19.0942V19.2501C12.9067 19.7363 12.7136 20.2026 12.3698 20.5464C12.026 20.8903 11.5596 21.0834 11.0734 21.0834C10.5872 21.0834 10.1209 20.8903 9.77705 20.5464C9.43324 20.2026 9.24008 19.7363 9.24008 19.2501V19.1676C9.23298 18.8642 9.13477 18.5699 8.95822 18.3231C8.78166 18.0762 8.53492 17.8882 8.25008 17.7834C7.9736 17.6614 7.6669 17.625 7.36954 17.6789C7.07218 17.7328 6.79779 17.8746 6.58175 18.0859L6.52675 18.1409C6.35648 18.3114 6.15428 18.4466 5.93172 18.5389C5.70916 18.6311 5.47059 18.6786 5.22966 18.6786C4.98874 18.6786 4.75017 18.6311 4.52761 18.5389C4.30504 18.4466 4.10285 18.3114 3.93258 18.1409C3.76212 17.9706 3.6269 17.7685 3.53464 17.5459C3.44238 17.3233 3.39489 17.0848 3.39489 16.8438C3.39489 16.6029 3.44238 16.3643 3.53464 16.1418C3.6269 15.9192 3.76212 15.717 3.93258 15.5467L3.98758 15.4917C4.19891 15.2757 4.34067 15.0013 4.39459 14.704C4.4485 14.4066 4.4121 14.0999 4.29008 13.8234C4.17388 13.5523 3.98094 13.3211 3.73501 13.1582C3.48908 12.9953 3.20089 12.9079 2.90591 12.9067H2.75008C2.26385 12.9067 1.79754 12.7136 1.45372 12.3698C1.1099 12.026 0.916748 11.5596 0.916748 11.0734C0.916748 10.5872 1.1099 10.1209 1.45372 9.77705C1.79754 9.43324 2.26385 9.24008 2.75008 9.24008H2.83258C3.13599 9.23298 3.43025 9.13477 3.67711 8.95822C3.92396 8.78166 4.11199 8.53492 4.21675 8.25008C4.33877 7.9736 4.37517 7.6669 4.32125 7.36954C4.26733 7.07218 4.12557 6.79779 3.91425 6.58175L3.85925 6.52675C3.68879 6.35648 3.55357 6.15428 3.46131 5.93172C3.36904 5.70916 3.32156 5.47059 3.32156 5.22966C3.32156 4.98874 3.36904 4.75017 3.46131 4.52761C3.55357 4.30504 3.68879 4.10285 3.85925 3.93258C4.02952 3.76212 4.23171 3.6269 4.45427 3.53464C4.67684 3.44238 4.9154 3.39489 5.15633 3.39489C5.39726 3.39489 5.63583 3.44238 5.85839 3.53464C6.08095 3.6269 6.28315 3.76212 6.45341 3.93258L6.50841 3.98758C6.72445 4.19891 6.99885 4.34067 7.29621 4.39459C7.59357 4.4485 7.90027 4.4121 8.17675 4.29008H8.25008C8.5212 4.17388 8.75243 3.98094 8.9153 3.73501C9.07817 3.48908 9.16557 3.20089 9.16675 2.90591V2.75008C9.16675 2.26385 9.3599 1.79754 9.70372 1.45372C10.0475 1.1099 10.5139 0.916748 11.0001 0.916748C11.4863 0.916748 11.9526 1.1099 12.2964 1.45372C12.6403 1.79754 12.8334 2.26385 12.8334 2.75008V2.83258C12.8346 3.12755 12.922 3.41574 13.0849 3.66167C13.2477 3.90761 13.479 4.10055 13.7501 4.21675C14.0266 4.33877 14.3333 4.37517 14.6306 4.32125C14.928 4.26733 15.2024 4.12557 15.4184 3.91425L15.4734 3.85925C15.6437 3.68879 15.8459 3.55357 16.0684 3.46131C16.291 3.36904 16.5296 3.32156 16.7705 3.32156C17.0114 3.32156 17.25 3.36904 17.4726 3.46131C17.6951 3.55357 17.8973 3.68879 18.0676 3.85925C18.238 4.02952 18.3733 4.23171 18.4655 4.45427C18.5578 4.67684 18.6053 4.9154 18.6053 5.15633C18.6053 5.39726 18.5578 5.63583 18.4655 5.85839C18.3733 6.08095 18.238 6.28315 18.0676 6.45341L18.0126 6.50841C17.8013 6.72445 17.6595 6.99885 17.6056 7.29621C17.5517 7.59357 17.5881 7.90027 17.7101 8.17675V8.25008C17.8263 8.5212 18.0192 8.75243 18.2652 8.9153C18.5111 9.07817 18.7993 9.16557 19.0942 9.16675H19.2501C19.7363 9.16675 20.2026 9.3599 20.5464 9.70372C20.8903 10.0475 21.0834 10.5139 21.0834 11.0001C21.0834 11.4863 20.8903 11.9526 20.5464 12.2964C20.2026 12.6403 19.7363 12.8334 19.2501 12.8334H19.1676C18.8726 12.8346 18.5844 12.922 18.3385 13.0849C18.0926 13.2477 17.8996 13.479 17.7834 13.7501V13.7501Z" stroke="#888C90" stroke-linecap="round" stroke-linejoin="round"/>
</svg>
