<svg fill="none" height="22" viewBox="0 0 22 22" width="22" xmlns="http://www.w3.org/2000/svg">
<path d="M11 13.75C12.5188 13.75 13.75 12.5188 13.75 11C13.75 9.48122 12.5188 8.25 11 8.25C9.48122 8.25 8.25 9.48122 8.25 11C8.25 12.5188 9.48122 13.75 11 13.75Z" stroke="white" stroke-linecap="round" stroke-linejoin="round"/>
<path d="M17.7832 13.75C17.6611 14.0264 17.6247 14.3331 17.6787 14.6305C17.7326 14.9279 17.8743 15.2023 18.0857 15.4183L18.1407 15.4733C18.3111 15.6436 18.4464 15.8458 18.5386 16.0683C18.6309 16.2909 18.6784 16.5294 18.6784 16.7704C18.6784 17.0113 18.6309 17.2499 18.5386 17.4724C18.4464 17.695 18.3111 17.8972 18.1407 18.0675C17.9704 18.2379 17.7682 18.3731 17.5456 18.4654C17.3231 18.5577 17.0845 18.6052 16.8436 18.6052C16.6027 18.6052 16.3641 18.5577 16.1415 18.4654C15.919 18.3731 15.7168 18.2379 15.5465 18.0675L15.4915 18.0125C15.2755 17.8011 15.0011 17.6594 14.7037 17.6055C14.4063 17.5515 14.0997 17.5879 13.8232 17.71C13.552 17.8262 13.3208 18.0191 13.158 18.265C12.9951 18.511 12.9077 18.7992 12.9065 19.0941V19.25C12.9065 19.7362 12.7133 20.2025 12.3695 20.5463C12.0257 20.8901 11.5594 21.0833 11.0732 21.0833C10.5869 21.0833 10.1206 20.8901 9.77681 20.5463C9.43299 20.2025 9.23984 19.7362 9.23984 19.25V19.1675C9.23274 18.864 9.13453 18.5698 8.95797 18.3229C8.78141 18.0761 8.53468 17.8881 8.24984 17.7833C7.97336 17.6613 7.66666 17.6249 7.3693 17.6788C7.07194 17.7327 6.79754 17.8745 6.5815 18.0858L6.5265 18.1408C6.35624 18.3112 6.15404 18.4465 5.93148 18.5387C5.70891 18.631 5.47035 18.6785 5.22942 18.6785C4.98849 18.6785 4.74993 18.631 4.52736 18.5387C4.3048 18.4465 4.1026 18.3112 3.93234 18.1408C3.76188 17.9705 3.62666 17.7683 3.53439 17.5458C3.44213 17.3232 3.39464 17.0846 3.39464 16.8437C3.39464 16.6028 3.44213 16.3642 3.53439 16.1417C3.62666 15.9191 3.76188 15.7169 3.93234 15.5466L3.98734 15.4916C4.19866 15.2756 4.34042 15.0012 4.39434 14.7038C4.44826 14.4065 4.41186 14.0998 4.28984 13.8233C4.17364 13.5522 3.9807 13.3209 3.73476 13.1581C3.48883 12.9952 3.20064 12.9078 2.90567 12.9066H2.74984C2.26361 12.9066 1.79729 12.7135 1.45347 12.3697C1.10966 12.0258 0.916504 11.5595 0.916504 11.0733C0.916504 10.5871 1.10966 10.1207 1.45347 9.77693C1.79729 9.43311 2.26361 9.23996 2.74984 9.23996H2.83234C3.13575 9.23286 3.43001 9.13465 3.67686 8.95809C3.92371 8.78154 4.11174 8.5348 4.2165 8.24996C4.33853 7.97348 4.37493 7.66678 4.32101 7.36942C4.26709 7.07206 4.12533 6.79766 3.914 6.58163L3.859 6.52663C3.68855 6.35636 3.55332 6.15416 3.46106 5.9316C3.3688 5.70904 3.32131 5.47047 3.32131 5.22954C3.32131 4.98861 3.3688 4.75005 3.46106 4.52749C3.55332 4.30492 3.68855 4.10273 3.859 3.93246C4.02927 3.762 4.23147 3.62678 4.45403 3.53452C4.67659 3.44226 4.91516 3.39477 5.15609 3.39477C5.39702 3.39477 5.63558 3.44226 5.85814 3.53452C6.08071 3.62678 6.2829 3.762 6.45317 3.93246L6.50817 3.98746C6.72421 4.19878 6.9986 4.34055 7.29596 4.39446C7.59333 4.44838 7.90002 4.41198 8.1765 4.28996H8.24984C8.52096 4.17376 8.75219 3.98082 8.91506 3.73489C9.07792 3.48895 9.16533 3.20076 9.1665 2.90579V2.74996C9.1665 2.26373 9.35966 1.79741 9.70347 1.4536C10.0473 1.10978 10.5136 0.916626 10.9998 0.916626C11.4861 0.916626 11.9524 1.10978 12.2962 1.4536C12.64 1.79741 12.8332 2.26373 12.8332 2.74996V2.83246C12.8343 3.12743 12.9217 3.41562 13.0846 3.66155C13.2475 3.90749 13.4787 4.10043 13.7498 4.21663C14.0263 4.33865 14.333 4.37505 14.6304 4.32113C14.9277 4.26721 15.2021 4.12545 15.4182 3.91413L15.4732 3.85913C15.6434 3.68867 15.8456 3.55344 16.0682 3.46118C16.2908 3.36892 16.5293 3.32143 16.7703 3.32143C17.0112 3.32143 17.2497 3.36892 17.4723 3.46118C17.6949 3.55344 17.8971 3.68867 18.0673 3.85913C18.2378 4.02939 18.373 4.23159 18.4653 4.45415C18.5575 4.67672 18.605 4.91528 18.605 5.15621C18.605 5.39714 18.5575 5.6357 18.4653 5.85827C18.373 6.08083 18.2378 6.28303 18.0673 6.45329L18.0123 6.50829C17.801 6.72433 17.6592 6.99872 17.6053 7.29609C17.5514 7.59345 17.5878 7.90014 17.7098 8.17663V8.24996C17.826 8.52108 18.019 8.75231 18.2649 8.91518C18.5108 9.07805 18.799 9.16545 19.094 9.16663H19.2498C19.7361 9.16663 20.2024 9.35978 20.5462 9.7036C20.89 10.0474 21.0832 10.5137 21.0832 11C21.0832 11.4862 20.89 11.9525 20.5462 12.2963C20.2024 12.6401 19.7361 12.8333 19.2498 12.8333H19.1673C18.8724 12.8345 18.5842 12.9219 18.3382 13.0847C18.0923 13.2476 17.8994 13.4788 17.7832 13.75V13.75Z" stroke="white" stroke-linecap="round" stroke-linejoin="round"/>
</svg>
