<svg width="20" height="15" viewBox="0 0 20 15" fill="none" xmlns="http://www.w3.org/2000/svg">
<g clip-path="url(#clip0)">
<path d="M3 5.5C4.38071 5.5 5.5 4.38071 5.5 3C5.5 1.61929 4.38071 0.5 3 0.5C1.61929 0.5 0.5 1.61929 0.5 3C0.5 4.38071 1.61929 5.5 3 5.5Z" stroke="#888C90" stroke-miterlimit="10" stroke-linecap="round" stroke-linejoin="round"/>
<path d="M3 14.4C4.38071 14.4 5.5 13.2807 5.5 11.9C5.5 10.5193 4.38071 9.40002 3 9.40002C1.61929 9.40002 0.5 10.5193 0.5 11.9C0.5 13.2807 1.61929 14.4 3 14.4Z" stroke="#888C90" stroke-miterlimit="10" stroke-linecap="round" stroke-linejoin="round"/>
<path d="M17.7 5.6H10.2C9.39995 5.6 8.69995 4.9 8.69995 4.1V2C8.69995 1.2 9.39995 0.5 10.2 0.5H17.7C18.5 0.5 19.2 1.2 19.2 2V4.1C19.2 4.9 18.5 5.6 17.7 5.6Z" stroke="#888C90" stroke-miterlimit="10" stroke-linecap="round" stroke-linejoin="round"/>
<path d="M17.7 14.4H10.2C9.39995 14.4 8.69995 13.7 8.69995 12.9V10.8C8.69995 10 9.39995 9.30005 10.2 9.30005H17.7C18.5 9.30005 19.2 10 19.2 10.8V12.9C19.2 13.8 18.5 14.4 17.7 14.4Z" stroke="#888C90" stroke-miterlimit="10" stroke-linecap="round" stroke-linejoin="round"/>
</g>
<defs>
<clipPath id="clip0">
<rect width="19.7" height="14.9" fill="white"/>
</clipPath>
</defs>
</svg>
