<svg fill="none" height="22" viewBox="0 0 22 22" width="22" xmlns="http://www.w3.org/2000/svg">
<g clip-path="url(#clip0)">
<path d="M6.86401 4.36792H2.90401C2.28801 4.36792 1.76001 4.89592 1.76001 5.51192V9.55992C1.76001 10.1759 2.28801 10.7039 2.90401 10.7039H6.95201C7.56801 10.7039 8.09601 10.1759 8.09601 9.55992V5.42392C8.00801 4.80792 7.48001 4.36792 6.86401 4.36792Z" stroke="#888C90" stroke-miterlimit="10"/>
<path d="M5.80799 6.48002C5.98399 6.30402 6.24799 6.30402 6.33599 6.48002C6.51199 6.65602 6.51199 6.92002 6.33599 7.00802L4.92799 8.41602C4.75199 8.59202 4.48799 8.59202 4.39999 8.41602L3.51999 7.53602C3.25599 7.36002 3.25599 7.09602 3.43199 6.92002C3.60799 6.74402 3.87199 6.74402 3.95999 6.92002L4.57599 7.53602L5.80799 6.48002Z" fill="#888C90"/>
<path d="M6.86401 15.048H2.90401C2.28801 15.048 1.76001 15.576 1.76001 16.192V20.24C1.76001 20.856 2.28801 21.384 2.90401 21.384H6.95201C7.56801 21.384 8.09601 20.856 8.09601 20.24V16.192C8.00801 15.488 7.48001 15.048 6.86401 15.048Z" stroke="#888C90" stroke-miterlimit="10"/>
<path d="M5.80794 17.16C5.98394 16.984 6.24794 16.984 6.33594 17.16C6.51194 17.336 6.51194 17.6 6.33594 17.688L4.92794 19.096C4.75194 19.272 4.48794 19.272 4.39994 19.096L3.51994 18.216C3.34394 18.04 3.34394 17.776 3.51994 17.688C3.69594 17.512 3.95994 17.512 4.04794 17.688L4.66394 18.304L5.80794 17.16Z" fill="#888C90"/>
<path d="M20.3041 13.464V21.208C20.3041 21.472 20.1281 21.736 19.7761 21.736H15.6401C15.3761 21.736 15.1121 21.56 15.1121 21.208V13.464" stroke="#888C90" stroke-linecap="round" stroke-linejoin="round" stroke-miterlimit="10"/>
<path d="M17.6641 15.224V21.56" stroke="#888C90" stroke-linecap="round" stroke-linejoin="round" stroke-miterlimit="10"/>
<path d="M20.392 6.07202C21.096 6.16002 21.624 6.86402 21.624 7.56802V12.408C21.624 12.936 21.184 13.376 20.656 13.376H14.672C14.232 13.376 13.792 13.024 13.792 12.496V7.56802C13.792 6.95202 14.232 6.33602 14.848 6.16002" stroke="#888C90" stroke-linecap="round" stroke-linejoin="round" stroke-miterlimit="10"/>
<path d="M15.9041 8.80005V13.288" stroke="#888C90" stroke-linecap="round" stroke-linejoin="round" stroke-miterlimit="10"/>
<path d="M19.4241 8.80005V13.288" stroke="#888C90" stroke-linecap="round" stroke-linejoin="round" stroke-miterlimit="10"/>
<path d="M17.928 0.880005H17.224C16.256 0.880005 15.552 1.584 15.552 2.464V4.312C15.552 4.752 15.728 5.28 16.08 5.632L16.344 5.896C17.048 6.6 18.28 6.6 18.984 5.896L19.512 5.368C19.864 5.016 20.04 4.576 20.04 4.048V2.464C20.04 1.584 19.336 0.880005 18.368 0.880005H17.928Z" stroke="#888C90" stroke-miterlimit="10"/>
<path d="M15.728 3.43205C15.816 3.43205 17.136 3.43205 17.4 2.90405C18.192 3.52005 18.368 3.87205 19.688 3.69605" stroke="#888C90" stroke-linecap="round" stroke-linejoin="round" stroke-miterlimit="10"/>
</g>
<defs>
<clipPath id="clip0">
<rect fill="white" height="22" width="22"/>
</clipPath>
</defs>
</svg>
