<svg width="40" height="40" viewBox="0 0 40 40" fill="none" xmlns="http://www.w3.org/2000/svg">
<path d="M15.9375 17.2656H34.6875C34.8594 17.2656 35 17.125 35 16.9531V14.7656C35 14.5937 34.8594 14.4531 34.6875 14.4531H15.9375C15.7656 14.4531 15.625 14.5937 15.625 14.7656V16.9531C15.625 17.125 15.7656 17.2656 15.9375 17.2656ZM15.625 25.2343C15.625 25.4062 15.7656 25.5468 15.9375 25.5468H34.6875C34.8594 25.5468 35 25.4062 35 25.2343V23.0468C35 22.875 34.8594 22.7343 34.6875 22.7343H15.9375C15.7656 22.7343 15.625 22.875 15.625 23.0468V25.2343ZM35.3125 6.24997H4.6875C4.51562 6.24997 4.375 6.39059 4.375 6.56247V8.74997C4.375 8.92184 4.51562 9.06247 4.6875 9.06247H35.3125C35.4844 9.06247 35.625 8.92184 35.625 8.74997V6.56247C35.625 6.39059 35.4844 6.24997 35.3125 6.24997ZM35.3125 30.9375H4.6875C4.51562 30.9375 4.375 31.0781 4.375 31.25V33.4375C4.375 33.6093 4.51562 33.75 4.6875 33.75H35.3125C35.4844 33.75 35.625 33.6093 35.625 33.4375V31.25C35.625 31.0781 35.4844 30.9375 35.3125 30.9375ZM4.50781 20.2695L10.6133 25.0781C10.8398 25.2578 11.1758 25.0976 11.1758 24.8086V15.1914C11.1758 14.9023 10.8438 14.7422 10.6133 14.9218L4.50781 19.7304C4.46676 19.7624 4.43354 19.8032 4.41069 19.8499C4.38784 19.8967 4.37596 19.948 4.37596 20C4.37596 20.052 4.38784 20.1033 4.41069 20.15C4.43354 20.1967 4.46676 20.2376 4.50781 20.2695Z" fill="#333333"/>
</svg>
