<svg width="22" height="22" viewBox="0 0 22 22" fill="none" xmlns="http://www.w3.org/2000/svg">
<g clip-path="url(#clip0)">
<path d="M11.0558 22C5.02538 22 0 17.2079 0 11.2178C0 5.22772 4.91371 0.435638 11.0558 0.435638C14.1827 0.435638 17.198 1.74257 19.3198 4.0297L18.5381 4.79207C16.6396 2.72277 13.9594 1.52475 11.1675 1.52475C5.58376 1.63366 1.11675 5.99009 1.11675 11.3267C1.11675 16.6634 5.58376 21.0198 11.0558 21.0198V22Z" fill="white"/>
<path d="M19.2081 0H18.3147L18.5381 4.35644L14.1827 4.24752L14.071 5.11881L19.4315 5.22772L19.2081 0Z" fill="white"/>
<path d="M11.0559 22C10.9443 22 10.9443 22 10.8326 22C10.7209 22 10.7209 21.8911 10.6092 21.8911C10.4976 21.7822 10.4976 21.6733 10.4976 21.4555C10.4976 21.3465 10.4976 21.1287 10.6092 21.0198C10.6092 21.0198 10.7209 20.9109 10.8326 20.9109C11.0559 20.802 11.2793 20.9109 11.391 21.0198C11.5026 21.1287 11.5026 21.2376 11.5026 21.4555C11.5026 21.5644 11.391 21.7822 11.391 21.8911C11.2793 22 11.1676 22 11.0559 22Z" fill="white"/>
<path d="M12.6194 21.3465C12.5077 21.0198 12.7311 20.802 13.0661 20.6931C13.4011 20.6931 13.6245 20.802 13.7361 21.1287C13.8478 21.4554 13.6245 21.6733 13.2894 21.7822H13.1778C12.9544 21.7822 12.7311 21.6733 12.6194 21.3465ZM14.7412 20.802C14.6295 20.4752 14.7412 20.2574 15.0762 20.0396C15.4113 19.9307 15.6346 20.0396 15.858 20.3663C15.9696 20.6931 15.858 20.9109 15.5229 21.0198C15.4113 21.0198 15.4113 21.1287 15.2996 21.1287C15.0762 21.1287 14.8529 21.0198 14.7412 20.802ZM16.7514 19.8218C16.528 19.604 16.6397 19.2772 16.863 19.0594C17.0864 18.8416 17.4214 18.9505 17.6448 19.1683C17.8681 19.3861 17.7564 19.7129 17.5331 19.9307C17.4214 20.0396 17.3097 20.0396 17.1981 20.0396C16.9747 20.1485 16.863 20.0396 16.7514 19.8218ZM18.4265 18.5148C18.2031 18.297 18.2031 17.9703 18.4265 17.7525C18.6498 17.5346 18.9849 17.5346 19.2082 17.7525C19.4316 17.9703 19.4316 18.297 19.2082 18.5148C19.0965 18.6238 18.9849 18.7327 18.7615 18.7327C18.6498 18.6238 18.5382 18.6238 18.4265 18.5148ZM19.7666 16.8812C19.5432 16.7723 19.4316 16.4455 19.5432 16.1188C19.6549 15.901 19.9899 15.7921 20.325 15.901C20.5483 16.0099 20.66 16.3366 20.5483 16.6634C20.4366 16.8812 20.2133 16.9901 20.1016 16.9901C19.9899 16.9901 19.8783 16.8812 19.7666 16.8812ZM20.7717 15.0297C20.4366 14.9208 20.325 14.5941 20.4366 14.3762C20.5483 14.0495 20.8833 13.9406 21.1067 14.0495C21.4417 14.1584 21.5534 14.4851 21.4417 14.703C21.33 14.9208 21.1067 15.1386 20.8833 15.1386C20.8833 15.0297 20.8833 15.0297 20.7717 15.0297ZM21.4417 12.9604C21.1067 12.9604 20.8833 12.6337 20.995 12.4158C20.995 12.0891 21.33 11.8713 21.5534 11.9802C21.8884 11.9802 22.1118 12.3069 22.0001 12.5247C22.0001 12.7426 21.7767 12.9604 21.4417 12.9604ZM20.8833 10.3465C20.8833 10.0198 21.1067 9.80197 21.33 9.80197C21.6651 9.80197 21.8884 10.0198 22.0001 10.2376C22.0001 10.5643 21.7767 10.7822 21.4417 10.7822C21.2184 10.7822 20.8833 10.5643 20.8833 10.3465Z" fill="white"/>
<path d="M20.9949 8.71287C20.8832 8.71287 20.6599 8.71287 20.5482 8.60396C20.5482 8.60396 20.4365 8.49505 20.4365 8.38614C20.4365 8.27723 20.4365 8.27723 20.4365 8.16832C20.4365 8.0594 20.5482 7.84158 20.5482 7.73267C20.7715 7.51485 21.1066 7.51485 21.3299 7.73267C21.4416 7.73267 21.4416 7.84158 21.4416 7.95049C21.4416 8.0594 21.4416 8.0594 21.4416 8.16832C21.4416 8.27723 21.4416 8.27723 21.4416 8.38614C21.4416 8.49505 21.3299 8.49505 21.3299 8.60396C21.3299 8.60396 21.1066 8.71287 20.9949 8.71287Z" fill="white"/>
<path d="M11.6143 5.00989H10.4976V11.8713H11.6143V5.00989Z" fill="white"/>
<path d="M11.0558 10.7822H6.70044V11.8713H11.0558V10.7822Z" fill="white"/>
</g>
<defs>
<clipPath id="clip0">
<rect width="22" height="22" fill="white"/>
</clipPath>
</defs>
</svg>
