<svg width="22" height="22" viewBox="0 0 22 22" fill="none" xmlns="http://www.w3.org/2000/svg">
<path d="M19.9177 15.7774C18.6587 14.2468 17.7698 13.4675 17.7698 9.24757C17.7698 5.38312 15.7831 4.00633 14.148 3.33766C13.9308 3.24903 13.7264 3.04545 13.6602 2.82386C13.3734 1.85422 12.5693 1 11.5005 1C10.4316 1 9.62709 1.85471 9.34321 2.82484C9.27702 3.04886 9.07258 3.24903 8.85538 3.33766C7.21831 4.00731 5.23363 5.37922 5.23363 9.24757C5.23118 13.4675 4.34229 14.2468 3.08323 15.7774C2.56157 16.4115 3.01851 17.3636 3.93094 17.3636H19.0749C19.9824 17.3636 20.4364 16.4086 19.9177 15.7774Z" stroke="#888C90" stroke-linecap="round" stroke-linejoin="round"/>
<path d="M14.6818 17.3636V18.0909C14.6818 18.8625 14.3465 19.6024 13.7498 20.148C13.1531 20.6935 12.3438 21 11.4999 21C10.6561 21 9.84675 20.6935 9.25005 20.148C8.65334 19.6024 8.31812 18.8625 8.31812 18.0909V17.3636" stroke="#888C90" stroke-linecap="round" stroke-linejoin="round"/>
</svg>
