<svg fill="none" height="22" viewBox="0 0 22 22" width="22" xmlns="http://www.w3.org/2000/svg">
<path d="M19.918 15.7774C18.6589 14.2468 17.77 13.4675 17.77 9.24757C17.77 5.38312 15.7834 4.00633 14.1483 3.33766C13.9311 3.24903 13.7266 3.04545 13.6604 2.82386C13.3736 1.85422 12.5695 1 11.5007 1C10.4319 1 9.62733 1.85471 9.34346 2.82484C9.27727 3.04886 9.07282 3.24903 8.85562 3.33766C7.21855 4.00731 5.23387 5.37922 5.23387 9.24757C5.23142 13.4675 4.34253 14.2468 3.08348 15.7774C2.56181 16.4115 3.01876 17.3636 3.93118 17.3636H19.0752C19.9827 17.3636 20.4367 16.4086 19.918 15.7774Z" stroke="white" stroke-linecap="round" stroke-linejoin="round"/>
<path d="M14.682 17.3636V18.0909C14.682 18.8625 14.3468 19.6024 13.7501 20.148C13.1534 20.6935 12.344 21 11.5002 21C10.6563 21 9.847 20.6935 9.25029 20.148C8.65359 19.6024 8.31836 18.8625 8.31836 18.0909V17.3636" stroke="white" stroke-linecap="round" stroke-linejoin="round"/>
</svg>
