<svg fill="none" height="21" viewBox="0 0 22 21" width="22" xmlns="http://www.w3.org/2000/svg">
<path d="M17.8469 1.07692C19.5306 1.07692 20.8775 2.36923 20.8775 3.98462C20.8775 5.6 19.5306 6.89231 17.8469 6.89231C16.1632 6.89231 14.8163 5.6 14.8163 3.98462C14.8163 2.36923 16.1632 1.07692 17.8469 1.07692ZM17.8469 0C15.602 0 13.6938 1.72308 13.6938 3.98462C13.6938 6.13846 15.4898 7.96923 17.8469 7.96923C20.2041 7.96923 22 6.24615 22 3.98462C22 1.72308 20.0918 0 17.8469 0Z" fill="white"/>
<path d="M18.5202 9.79997V18.4154C18.5202 19.4923 17.6223 20.4615 16.3876 20.4615H2.69369C1.57124 20.4615 0.561035 19.6 0.561035 18.4154V5.1692C0.561035 4.09228 1.45899 3.12305 2.69369 3.12305H11.561" stroke="white" stroke-miterlimit="10"/>
<path d="M3.92871 16.1538L7.18381 12.6L11.3369 15.4L15.2654 10.6615" stroke="white" stroke-miterlimit="10"/>
</svg>
