<svg fill="none" height="21" viewBox="0 0 22 21" width="22" xmlns="http://www.w3.org/2000/svg">
<path d="M17.8469 1.07692C19.5306 1.07692 20.8775 2.36923 20.8775 3.98462C20.8775 5.6 19.5306 6.89231 17.8469 6.89231C16.1632 6.89231 14.8163 5.6 14.8163 3.98462C14.8163 2.36923 16.1632 1.07692 17.8469 1.07692ZM17.8469 0C15.602 0 13.6938 1.72308 13.6938 3.98462C13.6938 6.13846 15.4898 7.96923 17.8469 7.96923C20.2041 7.96923 22 6.24615 22 3.98462C22 1.72308 20.0918 0 17.8469 0Z" fill="#888C90"/>
<path d="M18.5205 9.8V18.4154C18.5205 19.4923 17.6225 20.4615 16.3878 20.4615H2.69393C1.57148 20.4615 0.561279 19.6 0.561279 18.4154V5.16923C0.561279 4.09231 1.45924 3.12308 2.69393 3.12308H11.5613" stroke="#888C90" stroke-miterlimit="10"/>
<path d="M3.92847 16.1538L7.18357 12.6L11.3366 15.4L15.2652 10.6615" stroke="#888C90" stroke-miterlimit="10"/>
</svg>
