<svg fill="none" height="22" viewBox="0 0 22 22" width="22" xmlns="http://www.w3.org/2000/svg">
<path d="M17.5792 21.5H4.36066C2.56831 21.5 1 20.0437 1 18.1393V4.36066C1 2.56831 2.45628 1 4.36066 1H17.5792C19.3716 1 20.9399 2.45628 20.9399 4.36066V18.2514C20.9399 20.0437 19.3716 21.5 17.5792 21.5Z" stroke="white" stroke-miterlimit="10"/>
<path d="M20.9399 14.5546H17.1312C15.3388 14.5546 13.7705 13.0983 13.7705 11.194C13.7705 9.40162 15.2268 7.83331 17.1312 7.83331H20.8279" stroke="white" stroke-miterlimit="10"/>
<path d="M17.6915 12.4262C18.3102 12.4262 18.8117 11.9247 18.8117 11.306C18.8117 10.6873 18.3102 10.1858 17.6915 10.1858C17.0728 10.1858 16.5713 10.6873 16.5713 11.306C16.5713 11.9247 17.0728 12.4262 17.6915 12.4262Z" stroke="white" stroke-miterlimit="10"/>
</svg>
