<svg width="22" height="22" viewBox="0 0 22 22" fill="none" xmlns="http://www.w3.org/2000/svg">
<path d="M17.5792 21.5H4.36066C2.56831 21.5 1 20.0437 1 18.1393V4.36066C1 2.56831 2.45628 1 4.36066 1H17.5792C19.3716 1 20.9399 2.45628 20.9399 4.36066V18.2514C20.9399 20.0437 19.3716 21.5 17.5792 21.5Z" stroke="#888C90" stroke-miterlimit="10"/>
<path d="M20.9399 14.5546H17.1312C15.3388 14.5546 13.7705 13.0983 13.7705 11.1939C13.7705 9.40156 15.2268 7.83325 17.1312 7.83325H20.8279" stroke="#888C90" stroke-miterlimit="10"/>
<path d="M17.6913 12.4262C18.3099 12.4262 18.8115 11.9247 18.8115 11.306C18.8115 10.6873 18.3099 10.1858 17.6913 10.1858C17.0726 10.1858 16.571 10.6873 16.571 11.306C16.571 11.9247 17.0726 12.4262 17.6913 12.4262Z" stroke="#888C90" stroke-miterlimit="10"/>
</svg>
