<svg fill="none" height="22" viewBox="0 0 22 22" width="22" xmlns="http://www.w3.org/2000/svg">
<path d="M19.2271 1.83331H5.79954C4.7464 1.83331 3.95654 2.71093 3.95654 3.76407V15.8752" stroke="white" stroke-linecap="round" stroke-linejoin="round" stroke-miterlimit="10"/>
<path d="M0.972656 15.7874H12.4694C12.4694 15.7874 11.6796 19.9122 15.0145 20C17.9107 20 17.5596 15.6997 17.5596 15.6997C17.5596 15.6997 17.4719 4.99274 17.4719 3.9396C17.4719 2.88645 17.8229 1.83331 19.4026 1.83331C20.9823 1.83331 21.1579 3.32526 21.1579 3.67631C21.1579 4.02736 21.1579 6.66021 21.1579 6.66021H17.5596" stroke="white" stroke-linecap="round" stroke-linejoin="round" stroke-miterlimit="10"/>
<path d="M0.972454 16.0507C0.972454 16.4018 0.182599 20 3.86859 20C7.55459 20 14.9266 20 14.9266 20" stroke="white" stroke-linecap="round" stroke-linejoin="round" stroke-miterlimit="10"/>
<path d="M10.5386 4.0274L7.90576 5.43159C7.90576 5.43159 7.90576 7.0113 7.90576 7.53788C7.90576 8.06445 7.90576 8.94206 8.78338 9.5564C9.661 10.1707 10.4509 10.6973 10.4509 10.6973C10.4509 10.6973 11.9428 9.73192 12.2938 9.46863C12.6449 9.29311 13.1715 8.59102 13.1715 7.53788C13.1715 6.48473 13.1715 5.43159 13.1715 5.43159L10.5386 4.0274Z" stroke="white" stroke-linecap="round" stroke-linejoin="round" stroke-miterlimit="10"/>
<path d="M9.30957 7.18677L10.0994 7.97663L11.6791 6.48468" stroke="white" stroke-linecap="round" stroke-linejoin="round" stroke-miterlimit="10"/>
<path d="M7 12H14" stroke="white" stroke-linecap="round" stroke-linejoin="round" stroke-miterlimit="10"/>
<path d="M7 14H14" stroke="white" stroke-linecap="round" stroke-linejoin="round" stroke-miterlimit="10"/>
</svg>
