<svg fill="none" height="22" viewBox="0 0 22 22" width="22" xmlns="http://www.w3.org/2000/svg">
<path d="M19.2268 1.83325H5.7993C4.74615 1.83325 3.9563 2.71087 3.9563 3.76401V15.8751" stroke="#888C90" stroke-linecap="round" stroke-linejoin="round" stroke-miterlimit="10"/>
<path d="M0.972412 15.7874H12.4692C12.4692 15.7874 11.6793 19.9122 15.0143 19.9999C17.9104 19.9999 17.5594 15.6996 17.5594 15.6996C17.5594 15.6996 17.4716 4.99268 17.4716 3.93953C17.4716 2.88639 17.8227 1.83325 19.4024 1.83325C20.9821 1.83325 21.1576 3.3252 21.1576 3.67625C21.1576 4.0273 21.1576 6.66015 21.1576 6.66015H17.5594" stroke="#888C90" stroke-linecap="round" stroke-linejoin="round" stroke-miterlimit="10"/>
<path d="M0.972454 16.0507C0.972454 16.4017 0.182599 19.9999 3.86859 19.9999C7.55459 19.9999 14.9266 19.9999 14.9266 19.9999" stroke="#888C90" stroke-linecap="round" stroke-linejoin="round" stroke-miterlimit="10"/>
<path d="M10.5384 4.02734L7.90552 5.43153C7.90552 5.43153 7.90552 7.01124 7.90552 7.53781C7.90552 8.06438 7.90552 8.942 8.78314 9.55633C9.66075 10.1707 10.4506 10.6972 10.4506 10.6972C10.4506 10.6972 11.9426 9.73186 12.2936 9.46857C12.6447 9.29305 13.1712 8.59096 13.1712 7.53781C13.1712 6.48467 13.1712 5.43153 13.1712 5.43153L10.5384 4.02734Z" stroke="#888C90" stroke-linecap="round" stroke-linejoin="round" stroke-miterlimit="10"/>
<path d="M9.30981 7.18671L10.0997 7.97657L11.6794 6.48462" stroke="#888C90" stroke-linecap="round" stroke-linejoin="round" stroke-miterlimit="10"/>
<path d="M7 12H14" stroke="#888C90" stroke-linecap="round" stroke-linejoin="round" stroke-miterlimit="10"/>
<path d="M7 14H14" stroke="#888C90" stroke-linecap="round" stroke-linejoin="round" stroke-miterlimit="10"/>
</svg>
