<svg width="30" height="28" viewBox="0 0 30 28" fill="none" xmlns="http://www.w3.org/2000/svg">
<path fill-rule="evenodd" clip-rule="evenodd" d="M19.415 19.1099C19.139 19.1099 18.8982 18.9067 18.8585 18.6254C18.8157 18.3172 19.0295 18.0329 19.3377 17.9902C20.1177 17.8807 20.7065 17.2042 20.708 16.4152C20.708 15.6329 20.147 14.9714 19.3737 14.8447C19.0677 14.7944 18.86 14.5049 18.9102 14.1982C18.9612 13.8914 19.2485 13.6859 19.5567 13.7347C20.8752 13.9514 21.833 15.0794 21.833 16.4167C21.83 17.7629 20.8242 18.9179 19.493 19.1047C19.4667 19.1084 19.4405 19.1099 19.415 19.1099Z" fill="#41474D"/>
<mask id="mask0" mask-type="alpha" maskUnits="userSpaceOnUse" x="20" y="20" width="4" height="4">
<path fill-rule="evenodd" clip-rule="evenodd" d="M20.2334 20.501H23.0789V23.8982H20.2334V20.501Z" fill="white"/>
</mask>
<g mask="url(#mask0)">
<path fill-rule="evenodd" clip-rule="evenodd" d="M21.6459 23.8982C21.4194 23.8982 21.2056 23.7602 21.1201 23.5359C21.0091 23.2457 21.1554 22.9202 21.4456 22.8099C21.9541 22.6164 21.9541 22.4027 21.9541 22.2999C21.9541 21.9714 21.5364 21.7419 20.7129 21.6189C20.4061 21.5724 20.1939 21.2867 20.2396 20.9784C20.2854 20.6709 20.5704 20.4662 20.8801 20.5059C22.6974 20.7782 23.0791 21.6317 23.0791 22.2999C23.0791 22.7079 22.9186 23.4527 21.8461 23.8614C21.7801 23.8862 21.7126 23.8982 21.6459 23.8982Z" fill="#41474D"/>
</g>
<path fill-rule="evenodd" clip-rule="evenodd" d="M14.9151 21.9355C13.1331 21.9355 11.0083 22.1545 11.0083 23.197C11.0083 24.2478 13.1331 24.4683 14.9151 24.4683C16.6971 24.4683 18.8211 24.25 18.8211 23.2098C18.8211 22.1568 16.6971 21.9355 14.9151 21.9355ZM14.9151 25.5933C13.6708 25.5933 9.8833 25.5933 9.8833 23.197C9.8833 20.8105 13.6708 20.8105 14.9151 20.8105C16.1593 20.8105 19.9461 20.8105 19.9461 23.2098C19.9461 25.5933 16.2913 25.5933 14.9151 25.5933Z" fill="#41474D"/>
<path fill-rule="evenodd" clip-rule="evenodd" d="M14.9148 14.125C13.6458 14.125 12.6138 15.1578 12.6138 16.4268C12.6116 17.0418 12.8471 17.617 13.2783 18.0513C13.7096 18.4855 14.2841 18.7263 14.8961 18.7285L14.9148 19.291V18.7285C16.1838 18.7285 17.2166 17.6965 17.2166 16.4268C17.2166 15.1578 16.1838 14.125 14.9148 14.125ZM14.9148 19.8535H14.8945C13.9795 19.8505 13.1223 19.492 12.4803 18.844C11.8368 18.1968 11.485 17.3373 11.4888 16.4245C11.4888 14.5375 13.0255 13 14.9148 13C16.8048 13 18.3415 14.5375 18.3415 16.4268C18.3415 18.316 16.8048 19.8535 14.9148 19.8535Z" fill="#41474D"/>
<path fill-rule="evenodd" clip-rule="evenodd" d="M10.4143 19.1101C10.3888 19.1101 10.3626 19.1086 10.3363 19.1048C9.00507 18.9181 8.00007 17.7631 7.99707 16.4183C7.99707 15.0796 8.95482 13.9516 10.2733 13.7348C10.5891 13.6853 10.8688 13.8931 10.9198 14.1983C10.9701 14.5051 10.7623 14.7946 10.4563 14.8448C9.68307 14.9716 9.12207 15.6331 9.12207 16.4168C9.12357 17.2043 9.71232 17.8816 10.4916 17.9903C10.7998 18.0331 11.0136 18.3173 10.9708 18.6256C10.9311 18.9068 10.6903 19.1101 10.4143 19.1101Z" fill="#41474D"/>
<path fill-rule="evenodd" clip-rule="evenodd" d="M8.184 23.8985C8.11725 23.8985 8.04975 23.8865 7.98375 23.8617C6.9105 23.4522 6.75 22.7075 6.75 22.3002C6.75 21.6327 7.13175 20.7785 8.94975 20.5062C9.2595 20.4672 9.543 20.6712 9.5895 20.9787C9.63525 21.287 9.423 21.5727 9.11625 21.6192C8.29275 21.7422 7.875 21.9717 7.875 22.3002C7.875 22.403 7.875 22.616 8.38425 22.8102C8.6745 22.9205 8.82075 23.246 8.70975 23.5362C8.62425 23.7605 8.4105 23.8985 8.184 23.8985Z" fill="#41474D"/>
<path d="M5.5 20C4.64514 20 3.75794 20 2.99954 20C1.89497 20 1 19.1046 1 18V3C1 1.89543 1.89543 1 3 1H27C28.1046 1 29 1.89543 29 3V18C29 19.1046 28.1046 20 27 20H24.5" stroke="#41474D" stroke-width="1.3" stroke-linecap="round"/>
<line x1="9.5" y1="5.5" x2="21.5" y2="5.5" stroke="#41474D" stroke-linecap="round"/>
<line x1="7.5" y1="9.5" x2="23.5" y2="9.5" stroke="#41474D" stroke-linecap="round"/>
</svg>
