<svg fill="none" height="40" viewBox="0 0 40 40" width="40" xmlns="http://www.w3.org/2000/svg"><g clip-path="url(#prefix__clip0)"><path d="M10.718 38.778a.577.577 0 01-.415-.98l.719-.74a.58.58 0 01.818-.012c.23.222.235.588.012.817l-.719.739a.577.577 0 01-.415.176zM18.525 10.411a.577.577 0 01-.415-.98l.72-.74a.579.579 0 01.83.805l-.72.74a.578.578 0 01-.415.175z" fill="#FF4E61"/><path d="M35.131 7.843a.577.577 0 01-.415-.98l.72-.74a.58.58 0 01.818-.012c.23.222.235.588.012.817l-.72.74a.577.577 0 01-.415.175z" fill="#5C73BC"/><path d="M35.131 36.233a.579.579 0 01-.415-.98l.72-.74a.58.58 0 01.818-.012c.23.222.235.588.012.817l-.72.74a.577.577 0 01-.415.175zM7.676 8.821a.576.576 0 01-.414-.98l.72-.74a.58.58 0 01.817-.011.577.577 0 01.012.816l-.72.74a.578.578 0 01-.414.175z" fill="#FA0"/><path d="M3.703 21.783a.577.577 0 01-.415-.98l.72-.739a.58.58 0 01.818-.012c.23.222.235.588.012.816l-.72.74a.577.577 0 01-.415.175z" fill="#2DC471"/><path d="M19.67 21.757l-1.878 1.015c-.487.264-1.056-.162-.963-.72l.359-2.15a.694.694 0 00-.191-.604l-1.52-1.523c-.394-.395-.177-1.083.368-1.165l2.1-.314a.665.665 0 00.5-.373l.94-1.957a.656.656 0 011.19 0l.94 1.957a.666.666 0 00.5.373l2.1.314c.544.082.761.77.367 1.165l-1.52 1.523a.694.694 0 00-.19.604l.358 2.15c.094.558-.476.983-.963.72l-1.878-1.015a.647.647 0 00-.618 0z" fill="#FFD02F"/><path d="M19.98 40a.578.578 0 01-.579-.577v-9.03a.578.578 0 011.157 0v9.03a.578.578 0 01-.578.577zM19.984 27.924h-.01a.578.578 0 110-1.155h.01a.578.578 0 110 1.155z" fill="#5C73BC"/><path d="M19.984 25.937h-.012a.578.578 0 01.002-1.155H19.988a.578.578 0 01-.003 1.155z" fill="#FA0"/><path d="M9.568 18.038a.577.577 0 01-.415-.175l-6.21-6.386a.576.576 0 01.011-.816.58.58 0 01.819.012l6.21 6.386a.576.576 0 01-.415.98z" fill="#FF4E61"/><path d="M11.66 20.196a.577.577 0 01-.414-.982l.006-.006a.58.58 0 01.818-.01.576.576 0 01.01.817l-.006.007a.578.578 0 01-.414.174z" fill="#FA0"/><path d="M13.026 21.6a.577.577 0 01-.415-.98l.006-.006a.58.58 0 01.818-.012c.23.222.235.587.012.816l-.006.007a.577.577 0 01-.415.175z" fill="#5C73BC"/><path d="M30.39 17.812a.576.576 0 01-.415-.98l6.211-6.385a.58.58 0 01.83.804l-6.21 6.386a.577.577 0 01-.416.175z" fill="#FA0"/><path d="M28.3 19.97c-.15 0-.3-.059-.413-.174l-.007-.006a.58.58 0 01.825-.81l.007.007a.577.577 0 01-.413.982z" fill="#FF4E61"/><path d="M26.933 21.373a.577.577 0 01-.415-.175l-.006-.006a.577.577 0 11.83-.805l.006.006a.577.577 0 01-.415.98z" fill="#FA0"/><path d="M26.274 9.117a.577.577 0 01-.502-.864L30.224.468a.58.58 0 011.005.572l-4.451 7.786a.579.579 0 01-.504.29z" fill="#62D38F"/><path d="M24.777 11.743a.577.577 0 01-.297-.081l-.008-.005a.577.577 0 11.595-.991l.007.005a.577.577 0 01-.297 1.072z" fill="#FA0"/><path d="M23.798 13.457a.576.576 0 01-.298-.084l-.008-.004a.577.577 0 11.597-.99l.008.005a.577.577 0 01-.3 1.072z" fill="#2DC471"/><path d="M13.696 9.117a.579.579 0 01-.504-.291L8.742 1.04A.58.58 0 019.746.468l4.45 7.785a.577.577 0 01-.501.864z" fill="#5C73BC"/><path d="M15.193 11.745a.577.577 0 01-.299-1.072l.008-.005a.577.577 0 11.596.99l-.007.004a.577.577 0 01-.298.082z" fill="#FF4E61"/><path d="M16.172 13.457a.578.578 0 01-.3-1.072l.007-.005a.577.577 0 11.6.988l-.008.005a.576.576 0 01-.299.084z" fill="#FA0"/><path d="M34.22 27.912l-1.216.906c-.315.236-.755-.003-.745-.403l.04-1.543a.488.488 0 00-.194-.404l-1.214-.907c-.315-.236-.23-.74.143-.854l1.44-.439a.477.477 0 00.312-.313l.465-1.468a.465.465 0 01.834-.124l.85 1.272c.088.131.233.21.387.21h1.502c.39 0 .61.46.372.778l-.914 1.224a.494.494 0 00-.074.443l.463 1.469c.12.38-.237.738-.604.604l-1.415-.515a.46.46 0 00-.433.064z" fill="#FFD02F"/><path d="M23.21 40a.578.578 0 01-.579-.577c0-4.471 1.788-7.494 3.287-9.243 1.63-1.9 3.257-2.736 3.326-2.77a.579.579 0 01.523 1.03c-.024.012-1.526.793-3.003 2.53-1.974 2.322-2.976 5.166-2.976 8.453a.578.578 0 01-.578.577z" fill="#FF4E61"/><path d="M10.791 31.043l.921 1.22c.24.315.727.212.826-.175l.38-1.493a.479.479 0 01.295-.332l1.413-.524a.489.489 0 00.094-.86l-1.264-.834a.488.488 0 01-.215-.391l-.049-1.543c-.012-.4-.465-.612-.767-.358l-1.161.977a.46.46 0 01-.429.09l-1.442-.429c-.374-.111-.71.267-.568.64l.545 1.438a.494.494 0 01-.048.447l-.843 1.277c-.22.331.026.776.415.753l1.499-.089c.154-.01.303.06.398.186z" fill="#FFD02F"/><path d="M16.753 40a.578.578 0 01-.579-.577c0-2.348-.522-4.497-1.554-6.386a.58.58 0 011.016-.553c1.125 2.061 1.695 4.396 1.695 6.939a.578.578 0 01-.578.577z" fill="#FA0"/><path d="M23.79 4.367c0-.882-.695-1.596-1.552-1.596-.858 0-1.553.714-1.553 1.596 0 .882.695 1.597 1.553 1.597.857 0 1.553-.715 1.553-1.597z" fill="#FFD02F"/><path d="M31.944 34.907c0-.882-.695-1.596-1.553-1.596s-1.553.714-1.553 1.596c0 .882.695 1.596 1.553 1.596s1.553-.714 1.553-1.596z" fill="#5C73BC"/><path d="M6.194 35.224c0-.707-.558-1.28-1.246-1.28-.687 0-1.245.572-1.245 1.28 0 .707.558 1.28 1.245 1.28.688 0 1.246-.573 1.246-1.28z" fill="#62D38F"/><path d="M9.642 22.527c0-.707-.558-1.28-1.246-1.28-.687 0-1.245.573-1.245 1.28 0 .707.558 1.28 1.245 1.28.688 0 1.246-.573 1.246-1.28z" fill="#5C73BC"/><path d="M19.244 1.28c0-.707-.558-1.28-1.245-1.28-.688 0-1.246.573-1.246 1.28 0 .708.558 1.28 1.246 1.28s1.245-.572 1.245-1.28zM31.329 11.944c0-.708-.558-1.28-1.246-1.28-.687 0-1.245.572-1.245 1.28 0 .707.558 1.28 1.245 1.28.688 0 1.246-.573 1.246-1.28zM13.695 2.558a.576.576 0 01-.415-.98l.72-.74a.58.58 0 01.83.805l-.72.74a.578.578 0 01-.415.175z" fill="#FF4E61"/></g><defs><clipPath id="prefix__clip0"><path d="M0 0h40v40H0z" fill="#fff"/></clipPath></defs></svg>
