<svg fill="none" height="23" viewBox="0 0 24 23" width="24" xmlns="http://www.w3.org/2000/svg">
<g clip-path="url(#clip0)">
<path d="M7.86377 4.36797H3.90377C3.28777 4.36797 2.75977 4.89597 2.75977 5.51197V9.55997C2.75977 10.176 3.28777 10.704 3.90377 10.704H7.95177C8.56777 10.704 9.09576 10.176 9.09576 9.55997V5.42397C9.00776 4.80797 8.47977 4.36797 7.86377 4.36797Z" stroke="#888C90" stroke-miterlimit="10"/>
<path d="M6.80774 6.48001C6.98374 6.30401 7.24774 6.30401 7.33574 6.48001C7.51174 6.65601 7.51174 6.92001 7.33574 7.00801L5.92774 8.41601C5.75174 8.59201 5.48774 8.59201 5.39974 8.41601L4.51974 7.53601C4.25574 7.36001 4.25574 7.09601 4.43174 6.92001C4.60774 6.74401 4.87174 6.74401 4.95974 6.92001L5.57574 7.53601L6.80774 6.48001Z" fill="#888C90"/>
<path d="M7.86377 15.048H3.90377C3.28777 15.048 2.75977 15.576 2.75977 16.192V20.24C2.75977 20.856 3.28777 21.384 3.90377 21.384H7.95177C8.56777 21.384 9.09576 20.856 9.09576 20.24V16.192C9.00776 15.488 8.47977 15.048 7.86377 15.048Z" stroke="#888C90" stroke-miterlimit="10"/>
<path d="M6.8077 17.16C6.9837 16.984 7.2477 16.984 7.3357 17.16C7.5117 17.336 7.5117 17.6 7.3357 17.688L5.9277 19.096C5.7517 19.272 5.4877 19.272 5.3997 19.096L4.5197 18.216C4.3437 18.04 4.3437 17.776 4.5197 17.688C4.6957 17.512 4.9597 17.512 5.0477 17.688L5.6637 18.304L6.8077 17.16Z" fill="#888C90"/>
<path d="M21.3038 13.464V21.208C21.3038 21.472 21.1278 21.736 20.7758 21.736H16.6398C16.3758 21.736 16.1118 21.56 16.1118 21.208V13.464" stroke="#888C90" stroke-linecap="round" stroke-linejoin="round" stroke-miterlimit="10"/>
<path d="M18.6641 15.224V21.56" stroke="#888C90" stroke-linecap="round" stroke-linejoin="round" stroke-miterlimit="10"/>
<path d="M21.392 6.07201C22.096 6.16001 22.624 6.86401 22.624 7.56801V12.408C22.624 12.936 22.184 13.376 21.656 13.376H15.672C15.232 13.376 14.792 13.024 14.792 12.496V7.56801C14.792 6.95201 15.232 6.33601 15.848 6.16001" stroke="#888C90" stroke-linecap="round" stroke-linejoin="round" stroke-miterlimit="10"/>
<path d="M16.9038 8.79999V13.288" stroke="#888C90" stroke-linecap="round" stroke-linejoin="round" stroke-miterlimit="10"/>
<path d="M20.4238 8.79999V13.288" stroke="#888C90" stroke-linecap="round" stroke-linejoin="round" stroke-miterlimit="10"/>
<path d="M18.9278 0.879997H18.2238C17.2558 0.879997 16.5518 1.584 16.5518 2.464V4.312C16.5518 4.752 16.7278 5.28 17.0798 5.632L17.3438 5.896C18.0478 6.6 19.2798 6.6 19.9838 5.896L20.5118 5.368C20.8638 5.016 21.0398 4.576 21.0398 4.048V2.464C21.0398 1.584 20.3358 0.879997 19.3678 0.879997H18.9278Z" stroke="#888C90" stroke-miterlimit="10"/>
<path d="M16.7275 3.43198C16.8155 3.43198 18.1355 3.43198 18.3995 2.90398C19.1915 3.51998 19.3675 3.87198 20.6875 3.69598" stroke="#888C90" stroke-linecap="round" stroke-linejoin="round" stroke-miterlimit="10"/>
</g>
<defs>
<clipPath id="clip0">
<rect fill="white" height="22" transform="translate(1)" width="22"/>
</clipPath>
</defs>
</svg>
