<svg width="24" height="24" viewBox="0 0 24 24" fill="none" xmlns="http://www.w3.org/2000/svg">
<path d="M12 2C6.48602 2 2 6.48602 2 12C2 17.514 6.48602 22 12 22C17.514 22 22 17.514 22 12C22 6.48602 17.514 2 12 2ZM12 20.4169C7.35883 20.4169 3.58312 16.6409 3.58312 12C3.58312 7.3591 7.35883 3.58312 12 3.58312C16.6409 3.58312 20.4169 7.35937 20.4169 12.0003C20.4169 16.6412 16.6409 20.4169 12 20.4169Z" fill="#ACB0B5"/>
<path d="M12.0003 13.7744C9.18791 13.7744 6.5565 15.1847 4.59131 17.7451L5.84725 18.7087C7.50607 16.5478 9.69131 15.3575 12.0003 15.3575C14.3093 15.3575 16.4945 16.5478 18.1531 18.7087L19.409 17.7451C17.4438 15.1847 14.8127 13.7744 12.0003 13.7744Z" fill="#ACB0B5"/>
<path d="M11.9999 5.58838C9.73023 5.58838 7.88379 7.4467 7.88379 9.73084C7.88379 12.015 9.73023 13.8733 11.9999 13.8733C14.2695 13.8733 16.116 12.015 16.116 9.73088C16.116 7.44674 14.2695 5.58838 11.9999 5.58838ZM11.9999 12.2902C10.6033 12.2902 9.46691 11.1422 9.46691 9.73084C9.46691 8.31947 10.6033 7.17146 11.9999 7.17146C13.3964 7.17146 14.5329 8.31975 14.5329 9.73084C14.5329 11.1419 13.3964 12.2902 11.9999 12.2902Z" fill="#ACB0B5"/>
</svg>
