<svg width="24" height="29" viewBox="0 0 24 29" fill="none" xmlns="http://www.w3.org/2000/svg">
<path d="M24 23.3333V24.6667H0V23.3333L2.66667 20.6667V12.6667C2.66667 8.53332 5.37333 4.89332 9.33333 3.71999V3.33332C9.33333 2.62608 9.61429 1.9478 10.1144 1.4477C10.6145 0.947608 11.2928 0.666656 12 0.666656C12.7072 0.666656 13.3855 0.947608 13.8856 1.4477C14.3857 1.9478 14.6667 2.62608 14.6667 3.33332V3.71999C18.6267 4.89332 21.3333 8.53332 21.3333 12.6667V20.6667L24 23.3333ZM14.6667 26C14.6667 26.7072 14.3857 27.3855 13.8856 27.8856C13.3855 28.3857 12.7072 28.6667 12 28.6667C11.2928 28.6667 10.6145 28.3857 10.1144 27.8856C9.61429 27.3855 9.33333 26.7072 9.33333 26" fill="#4F4F4F"/>
</svg>
