<svg fill="none" height="32" viewBox="0 0 30 32" width="30" xmlns="http://www.w3.org/2000/svg"><path d="M28.75 7.5H16.875V.625A.625.625 0 0016.25 0h-15a.625.625 0 00-.625.625v30.75c0 .345.28.625.625.625h27.5c.345 0 .625-.28.625-.625V8.125a.625.625 0 00-.625-.625zM16.875 8.75h11.25V24.5h-11.25V8.75zm-10 22v-5h3.75v5h-3.75zm4.375-6.25h-5a.625.625 0 00-.625.625v5.625h-3.75V1.25h13.75v29.5h-3.75v-5.625a.625.625 0 00-.625-.625zm5.625 6.25v-5h11.25v5h-11.25z" fill="#41474D"/><path d="M8.125 5h1.25C9.72 5 10 4.72 10 4.375v-1.25a.625.625 0 00-.625-.625h-1.25a.625.625 0 00-.625.625v1.25c0 .345.28.625.625.625zm0 4.375h1.25c.345 0 .625-.28.625-.625V7.5a.625.625 0 00-.625-.625h-1.25A.625.625 0 007.5 7.5v1.25c0 .345.28.625.625.625zm0 4.375h1.25c.345 0 .625-.28.625-.625v-1.25a.625.625 0 00-.625-.625h-1.25a.625.625 0 00-.625.625v1.25c0 .345.28.625.625.625zm0 4.375h1.25c.345 0 .625-.28.625-.625v-1.25a.625.625 0 00-.625-.625h-1.25a.625.625 0 00-.625.625v1.25c0 .345.28.625.625.625zm0 4.375h1.25c.345 0 .625-.28.625-.625v-1.25A.625.625 0 009.375 20h-1.25a.625.625 0 00-.625.625v1.25c0 .345.28.625.625.625zM3.75 5H5c.345 0 .625-.28.625-.625v-1.25A.625.625 0 005 2.5H3.75a.625.625 0 00-.625.625v1.25c0 .345.28.625.625.625zm0 4.375H5c.345 0 .625-.28.625-.625V7.5A.625.625 0 005 6.875H3.75a.625.625 0 00-.625.625v1.25c0 .345.28.625.625.625zm0 4.375H5c.345 0 .625-.28.625-.625v-1.25A.625.625 0 005 11.25H3.75a.625.625 0 00-.625.625v1.25c0 .345.28.625.625.625zm0 4.375H5c.345 0 .625-.28.625-.625v-1.25A.625.625 0 005 15.625H3.75a.625.625 0 00-.625.625v1.25c0 .345.28.625.625.625zm0 4.375H5c.345 0 .625-.28.625-.625v-1.25A.625.625 0 005 20H3.75a.625.625 0 00-.625.625v1.25c0 .345.28.625.625.625zm10-20H12.5a.625.625 0 00-.625.625v1.25c0 .345.28.625.625.625h1.25c.345 0 .625-.28.625-.625v-1.25a.625.625 0 00-.625-.625zm0 4.375H12.5a.625.625 0 00-.625.625v1.25c0 .345.28.625.625.625h1.25c.345 0 .625-.28.625-.625V7.5a.625.625 0 00-.625-.625zm0 4.375H12.5a.625.625 0 00-.625.625v1.25c0 .345.28.625.625.625h1.25c.345 0 .625-.28.625-.625v-1.25a.625.625 0 00-.625-.625zm0 4.375H12.5a.625.625 0 00-.625.625v1.25c0 .345.28.625.625.625h1.25c.345 0 .625-.28.625-.625v-1.25a.625.625 0 00-.625-.625zm0 4.375H12.5a.625.625 0 00-.625.625v1.25c0 .345.28.625.625.625h1.25c.345 0 .625-.28.625-.625v-1.25A.625.625 0 0013.75 20zm11.562-8.75h-1.25a.625.625 0 00-.625.625v1.25c0 .345.28.625.625.625h1.25c.345 0 .625-.28.625-.625v-1.25a.625.625 0 00-.625-.625zm0 4.375h-1.25a.625.625 0 00-.625.625v1.25c0 .345.28.625.625.625h1.25c.345 0 .625-.28.625-.625v-1.25a.625.625 0 00-.625-.625zm0 4.375h-1.25a.625.625 0 00-.625.625v1.25c0 .345.28.625.625.625h1.25c.345 0 .625-.28.625-.625v-1.25a.625.625 0 00-.625-.625zm-4.375-8.75h-1.25a.625.625 0 00-.625.625v1.25c0 .345.28.625.625.625h1.25c.345 0 .625-.28.625-.625v-1.25a.625.625 0 00-.625-.625zm0 4.375h-1.25a.625.625 0 00-.625.625v1.25c0 .345.28.625.625.625h1.25c.345 0 .625-.28.625-.625v-1.25a.625.625 0 00-.625-.625zm0 4.375h-1.25a.625.625 0 00-.625.625v1.25c0 .345.28.625.625.625h1.25c.345 0 .625-.28.625-.625v-1.25a.625.625 0 00-.625-.625z" fill="#41474D"/></svg>
