<svg width="20" height="20" viewBox="0 0 20 20" fill="none" xmlns="http://www.w3.org/2000/svg">
<path fill-rule="evenodd" clip-rule="evenodd" d="M3.33331 4.16667C3.1123 4.16667 2.90034 4.25446 2.74406 4.41074C2.58778 4.56702 2.49998 4.77899 2.49998 5V16.6667C2.49998 16.8877 2.58778 17.0996 2.74406 17.2559C2.90034 17.4122 3.1123 17.5 3.33331 17.5H15C15.221 17.5 15.433 17.4122 15.5892 17.2559C15.7455 17.0996 15.8333 16.8877 15.8333 16.6667V12.2167C15.8333 11.7564 16.2064 11.3833 16.6666 11.3833C17.1269 11.3833 17.5 11.7564 17.5 12.2167V16.6667C17.5 17.3297 17.2366 17.9656 16.7677 18.4344C16.2989 18.9033 15.663 19.1667 15 19.1667H3.33331C2.67027 19.1667 2.03439 18.9033 1.56555 18.4344C1.09671 17.9656 0.833313 17.3297 0.833313 16.6667V5C0.833313 4.33696 1.0967 3.70107 1.56555 3.23223C2.03439 2.76339 2.67027 2.5 3.33331 2.5H7.78331C8.24355 2.5 8.61665 2.8731 8.61665 3.33333C8.61665 3.79357 8.24355 4.16667 7.78331 4.16667H3.33331Z" fill="#552263"/>
<path fill-rule="evenodd" clip-rule="evenodd" d="M14.4107 1.07741C14.7362 0.751977 15.2638 0.751977 15.5892 1.07741L18.9226 4.41075C19.248 4.73618 19.248 5.26382 18.9226 5.58926L10.5892 13.9226C10.433 14.0789 10.221 14.1667 9.99998 14.1667H6.66665C6.20641 14.1667 5.83331 13.7936 5.83331 13.3333V10C5.83331 9.77899 5.92111 9.56703 6.07739 9.41075L14.4107 1.07741ZM7.49998 10.3452V12.5H9.6548L17.1548 5L15 2.84518L7.49998 10.3452Z" fill="#552263"/>
</svg>
