<svg height="24" viewBox="0 0 511.92 511.92" width="512" xmlns="http://www.w3.org/2000/svg"><path d="M240.96 365.597V270.96H135.472c1.029 37.114 5.871 72.71 14.144 104.955 28.844-5.939 59.665-9.469 91.344-10.318zM212.826 494.586c9.172 7.758 18.589 12.984 28.134 15.665V395.605c-28.744.806-56.637 3.92-82.725 9.118 4.459 12.921 9.526 25.124 15.185 36.442 11.549 23.098 24.807 41.071 39.406 53.421zM338.5 441.165c5.659-11.318 10.725-23.521 15.185-36.442-26.088-5.198-53.98-8.313-82.725-9.118v114.646c9.546-2.681 18.962-7.907 28.134-15.666 14.599-12.349 27.857-30.322 39.406-53.42zM383.004 100.256c21.142-5.833 40.67-13.145 57.974-21.8a255.438 255.438 0 00-3.711-3.802c-28.835-28.835-63.33-49.953-100.978-62.324 10.546 12.465 20.299 27.519 29.044 45.009 6.65 13.299 12.554 27.673 17.671 42.917zM270.96 270.96v94.637c31.679.849 62.5 4.379 91.343 10.318 8.274-32.245 13.116-67.842 14.145-104.955zM173.42 70.755c-5.659 11.318-10.726 23.52-15.185 36.442 26.088 5.198 53.981 8.313 82.725 9.118V1.668c-9.546 2.681-18.963 7.907-28.134 15.666-14.599 12.35-27.857 30.323-39.406 53.421zM240.96 240.96v-94.637c-31.679-.849-62.5-4.379-91.343-10.318-8.274 32.245-13.115 67.842-14.144 104.955zM128.916 411.664c-21.143 5.833-40.67 13.145-57.974 21.8a260.44 260.44 0 003.711 3.803c28.835 28.835 63.33 49.953 100.978 62.324-10.546-12.465-20.299-27.519-29.044-45.009-6.65-13.3-12.554-27.674-17.671-42.918zM391.451 382.933c25.547 7.079 49.023 16.18 69.506 27.093 30.377-40.244 48.051-88.258 50.963-139.067H406.46c-1.041 39.422-6.18 77.395-15.009 111.974zM383.004 411.664c-5.117 15.244-11.021 29.618-17.671 42.918-8.745 17.49-18.499 32.544-29.044 45.009 37.648-12.371 72.143-33.489 100.978-62.324a265.507 265.507 0 003.711-3.802c-17.304-8.656-36.831-15.968-57.974-21.801zM391.451 128.987c8.83 34.579 13.968 72.552 15.009 111.973h105.46c-2.912-50.809-20.586-98.823-50.963-139.067-20.483 10.914-43.959 20.015-69.506 27.094zM270.96 146.323v94.637h105.488c-1.029-37.114-5.871-72.71-14.145-104.955-28.843 5.939-59.664 9.469-91.343 10.318zM299.094 17.334C289.922 9.576 280.506 4.35 270.96 1.668v114.646c28.744-.806 56.637-3.92 82.725-9.118-4.459-12.921-9.526-25.124-15.185-36.442-11.549-23.097-24.807-41.07-39.406-53.42zM128.916 100.256c5.117-15.244 11.021-29.618 17.671-42.918 8.745-17.49 18.499-32.544 29.044-45.009C137.983 24.7 103.489 45.818 74.653 74.653a260.44 260.44 0 00-3.711 3.803c17.304 8.655 36.832 15.967 57.974 21.8zM120.47 382.933c-8.83-34.579-13.968-72.552-15.01-111.973H0c2.912 50.808 20.586 98.822 50.963 139.066 20.484-10.913 43.959-20.014 69.507-27.093zM120.47 128.987c-25.547-7.079-49.023-16.18-69.507-27.093C20.586 142.138 2.912 190.152 0 240.96h105.46c1.041-39.421 6.18-77.395 15.01-111.973z"/></svg>
