<svg height="75" width="40" xmlns="http://www.w3.org/2000/svg"><defs><linearGradient gradientTransform="matrix(1 0 0 1.10145 -3.518 -3.832)" gradientUnits="userSpaceOnUse" id="prefix__b" x1="23.991" x2="23.991" y1="7" y2="65.5"><stop stop-color="#F2C94C"/><stop offset=".215" stop-color="#EBBD46"/><stop offset="1" stop-color="#D19130"/></linearGradient></defs><g stroke="null"><g filter="url(#prefix__a)" opacity=".5"><ellipse cx="19.982" cy="62.668" fill="#42472F" rx="13.5" ry="9.5"/></g><circle cx="19.982" cy="61.668" fill="#D19130" r="1.5"/><path clip-rule="evenodd" d="M20.482 19.168a8 8 0 100-16 8 8 0 000 16zm18.174 3.587c1.924 2.723-.193 7.409-4.078 11.395l.06.018L20.02 58.994 5.91 34.563c-4.17-4.07-6.51-8.99-4.428-11.808 2.152-1.715 3.846-.552 6.295 1.128 2.673 1.834 6.245 4.285 12.292 4.285 6.87 0 10.368-2.69 12.841-4.59 2.176-1.673 3.56-2.736 5.746-.823z" fill="url(#prefix__b)" fill-rule="evenodd"/><defs transform="matrix(1 0 0 1.10145 -3.518 -30.767)"><filter color-interpolation-filters="sRGB" filterUnits="userSpaceOnUse" height="39" id="prefix__a" stroke="null" width="47" x="0" y="40"><feGaussianBlur result="effect1_foregroundBlur" stdDeviation="5"/></filter></defs></g></svg>
