<svg fill="none" height="79" width="47" xmlns="http://www.w3.org/2000/svg"><g filter="url(#prefix__filter0_f)" opacity=".5"><ellipse cx="23.5" cy="59.5" fill="#42472F" rx="13.5" ry="9.5"/></g><circle cx="23.5" cy="58.5" fill="#D19130" r="1.5"/><path clip-rule="evenodd" d="M24 16a8 8 0 100-16 8 8 0 000 16zm18.174 3.587c1.924 2.723-.193 7.409-4.078 11.395l.06.018-14.618 24.826-14.11-24.431c-4.17-4.07-6.51-8.99-4.428-11.808 2.152-1.715 3.846-.552 6.295 1.128C13.968 22.549 17.54 25 23.587 25c6.87 0 10.368-2.69 12.841-4.59 2.176-1.673 3.559-2.736 5.746-.823z" fill="url(#prefix__paint0_linear)" fill-rule="evenodd"/><defs><linearGradient gradientUnits="userSpaceOnUse" id="prefix__paint0_linear" x1="23.991" x2="23.991" y1="7" y2="65.5"><stop stop-color="#F2C94C"/><stop offset=".215" stop-color="#EBBD46"/><stop offset="1" stop-color="#D19130"/></linearGradient><filter color-interpolation-filters="sRGB" filterUnits="userSpaceOnUse" height="39" id="prefix__filter0_f" width="47" x="0" y="40"><feFlood flood-opacity="0" result="BackgroundImageFix"/><feBlend in="SourceGraphic" in2="BackgroundImageFix" result="shape"/><feGaussianBlur result="effect1_foregroundBlur" stdDeviation="5"/></filter></defs></svg>
