<svg fill="none" height="24" width="24" xmlns="http://www.w3.org/2000/svg"><path d="M22.313 5.625h-8.907V.47A.469.469 0 0012.937 0H1.688a.469.469 0 00-.468.469V23.53c0 .259.21.469.468.469H22.313c.258 0 .468-.21.468-.469V6.094a.469.469 0 00-.468-.469zm-8.907.938h8.438v11.812h-8.438V6.563zm-7.5 16.5v-3.75H8.72v3.75H5.906zm3.282-4.688h-3.75a.469.469 0 00-.47.469v4.218H2.157V.938H12.47v22.125H9.656v-4.218a.469.469 0 00-.469-.469zm4.218 4.688v-3.75h8.438v3.75h-8.438z" fill="#41474D"/><path d="M6.844 3.75h.937c.259 0 .469-.21.469-.469v-.937a.469.469 0 00-.469-.469h-.937a.469.469 0 00-.469.469v.937c0 .26.21.469.469.469zM6.844 7.031h.937c.259 0 .469-.21.469-.468v-.938a.469.469 0 00-.469-.469h-.937a.469.469 0 00-.469.469v.938c0 .258.21.468.469.468zM6.844 10.313h.937c.259 0 .469-.21.469-.47v-.937a.469.469 0 00-.469-.469h-.937a.469.469 0 00-.469.47v.937c0 .259.21.469.469.469zM6.844 13.594h.937c.259 0 .469-.21.469-.469v-.938a.469.469 0 00-.469-.468h-.937a.469.469 0 00-.469.469v.937c0 .259.21.469.469.469zM6.844 16.875h.937c.259 0 .469-.21.469-.469v-.937A.469.469 0 007.78 15h-.937a.469.469 0 00-.469.469v.937c0 .26.21.469.469.469zM3.563 3.75H4.5c.259 0 .469-.21.469-.469v-.937a.469.469 0 00-.47-.469h-.936a.469.469 0 00-.47.469v.937c0 .26.21.469.47.469zM3.563 7.031H4.5c.259 0 .469-.21.469-.468v-.938a.469.469 0 00-.47-.469h-.936a.469.469 0 00-.47.469v.938c0 .258.21.468.47.468zM3.563 10.313H4.5c.259 0 .469-.21.469-.47v-.937a.469.469 0 00-.47-.469h-.936a.469.469 0 00-.47.47v.937c0 .259.21.469.47.469zM3.563 13.594H4.5c.259 0 .469-.21.469-.469v-.938a.469.469 0 00-.47-.468h-.936a.469.469 0 00-.47.469v.937c0 .259.21.469.47.469zM3.563 16.875H4.5c.259 0 .469-.21.469-.469v-.937a.469.469 0 00-.47-.469h-.936a.469.469 0 00-.47.469v.937c0 .26.21.469.47.469zM11.062 1.875h-.937a.469.469 0 00-.469.469v.937c0 .26.21.469.469.469h.937c.26 0 .47-.21.47-.469v-.937a.469.469 0 00-.47-.469zM11.062 5.156h-.937a.469.469 0 00-.469.469v.938c0 .258.21.468.469.468h.937c.26 0 .47-.21.47-.468v-.938a.469.469 0 00-.47-.469zM11.062 8.438h-.937a.469.469 0 00-.469.468v.938c0 .259.21.469.469.469h.937c.26 0 .47-.21.47-.47v-.937a.469.469 0 00-.47-.469zM11.062 11.719h-.937a.469.469 0 00-.469.469v.937c0 .259.21.469.469.469h.937c.26 0 .47-.21.47-.469v-.938a.469.469 0 00-.47-.468zM11.062 15h-.937a.469.469 0 00-.469.469v.937c0 .26.21.469.469.469h.937c.26 0 .47-.21.47-.469v-.937a.469.469 0 00-.47-.469zM19.734 8.438h-.937a.469.469 0 00-.469.468v.938c0 .259.21.469.469.469h.937c.26 0 .469-.21.469-.47v-.937a.469.469 0 00-.469-.469zM19.734 11.719h-.937a.469.469 0 00-.469.469v.937c0 .259.21.469.469.469h.937c.26 0 .469-.21.469-.469v-.938a.469.469 0 00-.469-.468zM19.734 15h-.937a.469.469 0 00-.469.469v.937c0 .26.21.469.469.469h.937c.26 0 .469-.21.469-.469v-.937a.469.469 0 00-.469-.469zM16.453 8.438h-.937a.469.469 0 00-.47.468v.938c0 .259.21.469.47.469h.937c.259 0 .469-.21.469-.47v-.937a.469.469 0 00-.469-.469zM16.453 11.719h-.937a.469.469 0 00-.47.469v.937c0 .259.21.469.47.469h.937c.259 0 .469-.21.469-.469v-.938a.469.469 0 00-.469-.468zM16.453 15h-.937a.469.469 0 00-.47.469v.937c0 .26.21.469.47.469h.937c.259 0 .469-.21.469-.469v-.937a.469.469 0 00-.469-.469z" fill="#41474D"/></svg>
