<svg width="20" height="20" viewBox="0 0 20 20" fill="none" xmlns="http://www.w3.org/2000/svg">
<path d="M18.2089 9.46273C18.0602 9.29678 14.4819 5.39388 10 5.39388C5.5182 5.39388 1.93995 9.29678 1.79115 9.46273C1.6252 9.64821 1.6252 9.92861 1.79115 10.1141C1.93995 10.28 5.51826 14.1829 10 14.1829C14.4818 14.1829 18.0601 10.28 18.2089 10.1141C18.3748 9.92861 18.3748 9.64821 18.2089 9.46273ZM10 13.2064C8.11556 13.2064 6.58207 11.6729 6.58207 9.78841C6.58207 7.90394 8.11556 6.37044 10 6.37044C11.8845 6.37044 13.418 7.90394 13.418 9.78841C13.418 11.6729 11.8845 13.2064 10 13.2064Z" fill="#552263"/>
<path d="M10.4883 8.81185C10.4883 8.32064 10.7321 7.88851 11.1031 7.62272C10.7702 7.45231 10.3989 7.34701 10 7.34701C8.65387 7.34701 7.55859 8.44229 7.55859 9.78841C7.55859 11.1345 8.65387 12.2298 10 12.2298C11.2052 12.2298 12.2027 11.3498 12.3998 10.1999C11.4165 10.5165 10.4883 9.77285 10.4883 8.81185Z" fill="#552263"/>
</svg>
