<svg viewBox="0 0 512 512" xmlns="http://www.w3.org/2000/svg"><path d="M289.8 200.2h-49.3v-49.3c0-11.3-9.1-20.4-20.4-20.4-11.3 0-20.4 9.1-20.4 20.4v49.3h-49.3c-11.3 0-20.4 9.1-20.4 20.4 0 11.3 9.1 20.4 20.4 20.4h49.3v49.3c0 11.3 9.1 20.4 20.4 20.4 11.3 0 20.4-9.1 20.4-20.4V241h49.3c11.3 0 20.4-9.1 20.4-20.4 0-11.3-9.2-20.4-20.4-20.4z"/><path d="M220.2 388.7C127.3 388.7 52 313.5 52 220.6S127.3 52.5 220.2 52.5s168.1 75.3 168.1 168.1S313 388.7 220.2 388.7zm274.8 78L381.7 353.4c29.7-36.1 47.6-82.4 47.6-132.8 0-115.5-93.6-209.2-209.2-209.2S11 105.1 11 220.6s93.6 209.2 209.2 209.2c50.4 0 96.6-17.8 132.7-47.5l113.3 113.3c5.2 5.3 21.1 7.9 28.9 0 7.9-8 7.9-20.9-.1-28.9z"/></svg>
