<svg fill="none" height="40" viewBox="0 0 40 40" width="40" xmlns="http://www.w3.org/2000/svg"><path d="M6.203 21.383H33.79a2.757 2.757 0 012.758 2.758v11.718H3.445V24.141a2.757 2.757 0 012.758-2.758z" fill="#FFCE73"/><path d="M12.414 8.969h15.172a2.757 2.757 0 012.758 2.758v9.656H9.656v-9.656a2.757 2.757 0 012.758-2.758z" fill="#FFCE73"/><path d="M27.586 8.969H12.414a2.757 2.757 0 00-2.758 2.758v3.617a2.923 2.923 0 004.133 0 2.947 2.947 0 014.14 0 2.923 2.923 0 004.134 0 2.947 2.947 0 014.14 0 2.923 2.923 0 004.133 0v-3.617a2.746 2.746 0 00-2.75-2.758zM33.797 21.383H6.203a2.757 2.757 0 00-2.758 2.758v4.828c.774 0 1.524-.305 2.07-.852a2.924 2.924 0 014.133 0 2.947 2.947 0 004.141 0 2.923 2.923 0 014.133 0 2.947 2.947 0 004.14 0 2.923 2.923 0 014.133 0 2.947 2.947 0 004.14 0 2.923 2.923 0 014.134 0 2.9 2.9 0 002.07.852V24.14a2.734 2.734 0 00-2.742-2.758z" fill="#71C4D1"/><path d="M0 35.86h40A4.138 4.138 0 0135.86 40H4.14A4.138 4.138 0 010 35.86z" fill="#FA8231"/><path d="M13.796 11.727h-1.382v1.382h1.382v-1.382zM17.242 11.031H15.86v1.383h1.383v-1.383zM20.695 11.727h-1.383v1.382h1.383v-1.382zM24.14 11.031h-1.383v1.383h1.383v-1.383zM27.585 11.727h-1.382v1.382h1.383v-1.382zM13.796 24.14h-1.382v1.383h1.382v-1.382zM17.242 23.445H15.86v1.383h1.383v-1.383zM20.695 24.14h-1.383v1.383h1.383v-1.382zM24.14 23.445h-1.383v1.383h1.383v-1.383zM27.585 24.14h-1.382v1.383h1.383v-1.382zM6.898 24.14H5.516v1.383h1.382v-1.382zM10.352 23.445H8.969v1.383h1.383v-1.383zM31.04 23.445h-1.384v1.383h1.383v-1.383zM34.484 24.14h-1.382v1.383h1.382v-1.382z" fill="#FFCE73"/><path d="M21.375 4.828h-2.757v4.14h2.758v-4.14z" fill="#4398D1"/><path d="M20 4.14A2.416 2.416 0 0120 0a2.416 2.416 0 010 4.14z" fill="#F2B12F"/><path d="M15.859 4.828H13.1v4.14h2.758v-4.14z" fill="#4398D1"/><path d="M14.484 4.14a2.416 2.416 0 010-4.14 2.416 2.416 0 01.828 3.313c-.21.335-.492.624-.828.828z" fill="#F2B12F"/><path d="M26.898 4.828h-2.757v4.14h2.757v-4.14z" fill="#4398D1"/><path d="M25.516 4.14a2.416 2.416 0 010-4.14 2.416 2.416 0 010 4.14z" fill="#F2B12F"/></svg>
